<?xml version="1.0" encoding="UTF-8"?>
<!DOCTYPE svg PUBLIC "-//W3C//DTD SVG 1.1//EN" "http://www.w3.org/Graphics/SVG/1.1/DTD/svg11.dtd">
<svg xmlns="http://www.w3.org/2000/svg" version="1.1" width="368px" height="368px" style="shape-rendering:geometricPrecision; text-rendering:geometricPrecision; image-rendering:optimizeQuality; fill-rule:evenodd; clip-rule:evenodd" xmlns:xlink="http://www.w3.org/1999/xlink">
<g><path style="opacity:0.995" fill="#6e2f30" d="M 161.5,-0.5 C 176.167,-0.5 190.833,-0.5 205.5,-0.5C 265.035,9.00218 310.535,39.3355 342,90.5C 370.92,144.241 374.254,199.575 352,256.5C 327.743,311.629 286.243,347.129 227.5,363C 220.053,364.625 212.72,366.125 205.5,367.5C 190.833,367.5 176.167,367.5 161.5,367.5C 137.231,363.798 114.231,355.965 92.5,344C 76.7371,342.822 66.4037,335.156 61.5,321C 21.4998,284.145 1.16643,238.311 0.5,183.5C 2.40153,113.189 33.0682,59.6888 92.5,23C 114.231,11.035 137.231,3.20166 161.5,-0.5 Z"/></g>
<g><path style="opacity:1" fill="#bf9392" d="M 128.5,55.5 C 126.5,54.1667 124.5,54.1667 122.5,55.5C 121.957,55.44 121.624,55.1067 121.5,54.5C 124.167,53.1667 126.833,53.1667 129.5,54.5C 129.376,55.1067 129.043,55.44 128.5,55.5 Z"/></g>
<g><path style="opacity:1" fill="#bf9d9e" d="M 149.5,54.5 C 144.305,54.1795 139.305,54.5128 134.5,55.5C 133.957,55.44 133.624,55.1067 133.5,54.5C 138.986,53.1853 144.32,53.1853 149.5,54.5 Z"/></g>
<g><path style="opacity:1" fill="#c09b98" d="M 192.5,54.5 C 188.629,54.185 184.962,54.5184 181.5,55.5C 180.957,55.44 180.624,55.1067 180.5,54.5C 184.649,53.1905 188.649,53.1905 192.5,54.5 Z"/></g>
<g><path style="opacity:1" fill="#b28888" d="M 213.5,55.5 C 210.833,54.1667 208.167,54.1667 205.5,55.5C 204.957,55.44 204.624,55.1067 204.5,54.5C 207.833,53.1667 211.167,53.1667 214.5,54.5C 214.376,55.1067 214.043,55.44 213.5,55.5 Z"/></g>
<g><path style="opacity:1" fill="#b69292" d="M 218.5,54.5 C 224.979,53.5093 231.646,53.176 238.5,53.5C 238.808,55.924 238.474,58.2573 237.5,60.5C 236.893,60.3764 236.56,60.0431 236.5,59.5C 237.451,58.0813 237.784,56.4147 237.5,54.5C 231.167,54.5 224.833,54.5 218.5,54.5 Z"/></g>
<g><path style="opacity:1" fill="#f3e8e6" d="M 134.5,55.5 C 139.305,54.5128 144.305,54.1795 149.5,54.5C 149.785,56.288 149.452,57.9547 148.5,59.5C 147.571,58.3112 147.238,56.9778 147.5,55.5C 144.833,55.5 142.167,55.5 139.5,55.5C 139.5,58.8333 139.5,62.1667 139.5,65.5C 141.5,65.5 143.5,65.5 145.5,65.5C 146.117,61.5779 146.784,61.5779 147.5,65.5C 147.167,66.5 146.833,67.5 146.5,68.5C 145.893,68.3764 145.56,68.0431 145.5,67.5C 143.735,66.5386 141.735,66.2053 139.5,66.5C 139.19,69.7131 139.523,72.7131 140.5,75.5C 144.514,76.176 147.514,74.8427 149.5,71.5C 150.466,73.396 150.799,75.396 150.5,77.5C 144.824,77.6661 139.157,77.4994 133.5,77C 134.025,76.3076 134.692,75.8076 135.5,75.5C 135.833,72.1667 136.167,68.8333 136.5,65.5C 136.486,61.7614 135.82,58.428 134.5,55.5 Z"/></g>
<g><path style="opacity:1" fill="#eadcdb" d="M 205.5,55.5 C 208.167,54.1667 210.833,54.1667 213.5,55.5C 212.179,58.5982 211.512,62.0982 211.5,66C 211.544,69.9312 212.211,73.5978 213.5,77C 210.833,77.6667 208.167,77.6667 205.5,77C 206,76.5 206.5,76 207,75.5C 207.167,72.1667 207.333,68.8333 207.5,65.5C 207.486,61.7614 206.82,58.428 205.5,55.5 Z"/></g>
<g><path style="opacity:1" fill="#f9f3f2" d="M 218.5,54.5 C 224.833,54.5 231.167,54.5 237.5,54.5C 237.784,56.4147 237.451,58.0813 236.5,59.5C 235.662,59.1583 235.328,58.4916 235.5,57.5C 234.082,55.6921 232.082,55.0254 229.5,55.5C 229.176,62.3543 229.509,69.021 230.5,75.5C 230.918,76.2216 231.584,76.7216 232.5,77C 229.5,77.6667 226.5,77.6667 223.5,77C 224.416,76.7216 225.082,76.2216 225.5,75.5C 226.491,69.021 226.824,62.3543 226.5,55.5C 224.585,55.2155 222.919,55.5489 221.5,56.5C 218.937,61.8074 217.937,61.1407 218.5,54.5 Z"/></g>
<g><path style="opacity:1" fill="#ecdedc" d="M 175.5,68.5 C 174.745,71.0529 174.078,73.7196 173.5,76.5C 159.545,79.377 154.045,73.7103 157,59.5C 160.509,54.1617 165.342,52.3284 171.5,54C 173.418,55.7702 173.918,57.9369 173,60.5C 168.881,55.2899 164.548,55.2899 160,60.5C 157.703,70.3568 161.536,75.3568 171.5,75.5C 172.037,72.0279 171.037,69.1945 168.5,67C 171.5,66.3333 174.5,66.3333 177.5,67C 176.584,67.2784 175.918,67.7784 175.5,68.5 Z"/></g>
<g><path style="opacity:1" fill="#f0e3e3" d="M 122.5,55.5 C 124.5,54.1667 126.5,54.1667 128.5,55.5C 127.883,55.6107 127.383,55.944 127,56.5C 126.831,63.5236 126.331,70.5236 125.5,77.5C 121.179,71.5378 116.845,65.5378 112.5,59.5C 111.337,64.8023 111.171,70.1357 112,75.5C 112.5,76 113,76.5 113.5,77C 111.167,77.6667 108.833,77.6667 106.5,77C 107.025,76.3076 107.692,75.8076 108.5,75.5C 109.497,68.8665 109.83,62.1998 109.5,55.5C 105.578,54.8826 105.578,54.2159 109.5,53.5C 111.374,53.3898 112.874,54.0564 114,55.5C 117.085,60.672 120.419,65.672 124,70.5C 124.167,68 124.333,65.5 124.5,63C 124.475,60.0706 123.809,57.5706 122.5,55.5 Z"/></g>
<g><path style="opacity:1" fill="#f3e9e8" d="M 181.5,55.5 C 184.962,54.5184 188.629,54.185 192.5,54.5C 197.254,55.611 198.754,58.611 197,63.5C 195.702,64.5596 194.535,65.7263 193.5,67C 195.581,70.4912 197.915,73.8245 200.5,77C 199.167,77.6667 197.833,77.6667 196.5,77C 194.044,74.5925 192.211,71.7591 191,68.5C 189.89,66.9632 188.39,66.2965 186.5,66.5C 186.335,69.5184 186.502,72.5184 187,75.5C 187.75,76.1258 188.584,76.6258 189.5,77C 186.5,77.6667 183.5,77.6667 180.5,77C 181.025,76.3076 181.692,75.8076 182.5,75.5C 183.664,69.1928 183.831,62.8595 183,56.5C 182.617,55.944 182.117,55.6107 181.5,55.5 Z"/></g>
<g><path style="opacity:1" fill="#652728" d="M 191.5,56.5 C 195.5,59.1667 195.5,61.8333 191.5,64.5C 190.167,64.5 188.833,64.5 187.5,64.5C 187.5,61.8333 187.5,59.1667 187.5,56.5C 188.833,56.5 190.167,56.5 191.5,56.5 Z"/></g>
<g><path style="opacity:1" fill="#a07270" d="M 191.5,56.5 C 190.167,56.5 188.833,56.5 187.5,56.5C 187.5,59.1667 187.5,61.8333 187.5,64.5C 188.833,64.5 190.167,64.5 191.5,64.5C 190.081,65.4511 188.415,65.7845 186.5,65.5C 186.5,62.1667 186.5,58.8333 186.5,55.5C 188.415,55.2155 190.081,55.5489 191.5,56.5 Z"/></g>
<g><path style="opacity:1" fill="#8a5d5d" d="M 235.5,57.5 C 233.958,56.6993 232.292,56.366 230.5,56.5C 230.5,62.8333 230.5,69.1667 230.5,75.5C 229.509,69.021 229.176,62.3543 229.5,55.5C 232.082,55.0254 234.082,55.6921 235.5,57.5 Z"/></g>
<g><path style="opacity:1" fill="#936465" d="M 221.5,56.5 C 222.919,55.5489 224.585,55.2155 226.5,55.5C 226.824,62.3543 226.491,69.021 225.5,75.5C 225.5,69.1667 225.5,62.8333 225.5,56.5C 224.167,56.5 222.833,56.5 221.5,56.5 Z"/></g>
<g><path style="opacity:1" fill="#966361" d="M 145.5,67.5 C 143.833,67.5 142.167,67.5 140.5,67.5C 140.5,70.1667 140.5,72.8333 140.5,75.5C 139.523,72.7131 139.19,69.7131 139.5,66.5C 141.735,66.2053 143.735,66.5386 145.5,67.5 Z"/></g>
<g><path style="opacity:1" fill="#ae8785" d="M 175.5,68.5 C 176.036,71.6981 175.369,74.3647 173.5,76.5C 174.078,73.7196 174.745,71.0529 175.5,68.5 Z"/></g>
<g><path style="opacity:1" fill="#e8d9d6" d="M 248.5,54.5 C 250.074,54.9371 251.241,55.9371 252,57.5C 254.137,63.5787 256.471,69.5787 259,75.5C 259.75,76.1258 260.584,76.6258 261.5,77C 258.5,77.6667 255.5,77.6667 252.5,77C 253.516,76.4806 254.182,75.6473 254.5,74.5C 253.954,72.8653 253.62,71.1986 253.5,69.5C 250.428,69.1826 247.428,69.5159 244.5,70.5C 242.861,73.0403 243.194,75.2069 245.5,77C 242.833,77.6667 240.167,77.6667 237.5,77C 242.204,70.0837 245.871,62.5837 248.5,54.5 Z"/></g>
<g><path style="opacity:1" fill="#662c2f" d="M 248.5,59.5 C 250.655,61.6174 251.655,64.284 251.5,67.5C 249.833,67.5 248.167,67.5 246.5,67.5C 246.584,64.6726 247.25,62.006 248.5,59.5 Z"/></g>
<g><path style="opacity:1" fill="#d5bbba" d="M 206.5,107.5 C 207.482,111.316 208.149,115.316 208.5,119.5C 207.778,119.082 207.278,118.416 207,117.5C 206.502,114.183 206.335,110.85 206.5,107.5 Z"/></g>
<g><path style="opacity:1" fill="#f5eceb" d="M 31.5,167.5 C 34.5184,167.335 37.5184,167.502 40.5,168C 42.3111,170.947 44.3111,170.947 46.5,168C 57.9976,166.839 62.4976,172.006 60,183.5C 56.2286,190.602 50.5619,195.602 43,198.5C 35.0498,195.549 29.3831,190.215 26,182.5C 25.3333,179.5 25.3333,176.5 26,173.5C 27.7691,171.383 29.6024,169.383 31.5,167.5 Z"/></g>
<g><path style="opacity:1" fill="#f5ebea" d="M 312.5,167.5 C 317.041,166.769 321.041,167.769 324.5,170.5C 331.248,165.789 337.081,166.789 342,173.5C 342.87,181.214 340.37,187.714 334.5,193C 331.221,195.223 327.721,197.057 324,198.5C 316.574,194.968 310.907,189.634 307,182.5C 306.333,179.5 306.333,176.5 307,173.5C 309.04,171.63 310.873,169.63 312.5,167.5 Z"/></g>
<g><path style="opacity:1" fill="#f5eceb" d="M 206.5,107.5 C 206.335,110.85 206.502,114.183 207,117.5C 207.278,118.416 207.778,119.082 208.5,119.5C 209.999,132.198 209.832,144.865 208,157.5C 204.195,165.572 197.861,170.239 189,171.5C 188.333,179.5 188.333,187.5 189,195.5C 193.481,189.021 198.648,183.188 204.5,178C 214.979,173.462 224.146,175.295 232,183.5C 237.501,189.83 242.001,196.83 245.5,204.5C 251.257,201.401 257.257,199.568 263.5,199C 280.74,215.153 284.24,233.986 274,255.5C 266.022,268.475 254.522,276.308 239.5,279C 207.012,285.069 174.346,286.069 141.5,282C 133.136,280.106 124.803,278.106 116.5,276C 94.6565,264.866 85.4898,247.032 89,222.5C 91.9273,213.476 96.7606,205.643 103.5,199C 105.5,198.333 107.5,198.333 109.5,199C 113.756,200.807 118.089,202.307 122.5,203.5C 126.308,193.84 131.975,185.34 139.5,178C 148.404,172.129 157.404,172.129 166.5,178C 171.046,182.877 175.213,188.044 179,193.5C 179.5,186.174 179.666,178.841 179.5,171.5C 162.738,170.237 155.238,161.237 157,144.5C 158.561,141.217 160.727,138.383 163.5,136C 172.797,131.268 180.63,124.768 187,116.5C 190.576,109.084 193.743,101.584 196.5,94C 199.025,93.1041 201.192,93.6041 203,95.5C 205.056,99.2677 206.222,103.268 206.5,107.5 Z"/></g>
<g><path style="opacity:1" fill="#6c2d2d" d="M 212.5,184.5 C 215.271,184.421 217.937,184.921 220.5,186C 227.381,192.213 232.714,199.546 236.5,208C 229.47,211.69 222.97,216.19 217,221.5C 210.128,214.959 202.961,208.793 195.5,203C 197.962,198.574 200.796,194.407 204,190.5C 206.322,187.605 209.155,185.605 212.5,184.5 Z"/></g>
<g><path style="opacity:1" fill="#6d2d2e" d="M 147.5,183.5 C 152.194,182.896 156.528,183.729 160.5,186C 164.867,191.234 168.867,196.734 172.5,202.5C 164.577,208.086 157.243,214.419 150.5,221.5C 143.915,216.395 137.249,211.561 130.5,207C 134.359,197.752 140.025,189.918 147.5,183.5 Z"/></g>
<g><path style="opacity:1" fill="#6d2f2f" d="M 197.5,115.5 C 199.873,123.015 200.873,130.849 200.5,139C 200.585,144.248 200.085,149.415 199,154.5C 197.033,158.406 193.866,160.739 189.5,161.5C 188.675,157.878 188.175,154.211 188,150.5C 185.333,147.833 182.667,147.833 180,150.5C 179.827,154.541 179.327,158.541 178.5,162.5C 169.294,161.476 165.127,156.476 166,147.5C 171.214,142.297 177.048,137.797 183.5,134C 189.523,128.755 194.189,122.588 197.5,115.5 Z"/></g>
<g><path style="opacity:1" fill="#6d2e2f" d="M 105.5,209.5 C 122.278,212.97 136.445,220.97 148,233.5C 155.001,248.151 150.835,258.318 135.5,264C 131.204,265.324 126.871,266.491 122.5,267.5C 106.072,261.723 97.7388,250.056 97.5,232.5C 97.7863,223.973 100.453,216.307 105.5,209.5 Z"/></g>
<g><path style="opacity:1" fill="#6e2e2f" d="M 182.5,207.5 C 197.21,215.361 209.71,226.028 220,239.5C 225.953,249.472 225.953,259.472 220,269.5C 218.59,270.787 217.09,271.954 215.5,273C 195.858,274.513 176.191,274.847 156.5,274C 151.373,273.822 146.373,272.988 141.5,271.5C 160.489,262.371 165.489,248.204 156.5,229C 164.462,220.861 173.129,213.694 182.5,207.5 Z"/></g>
<g><path style="opacity:1" fill="#6d2e2e" d="M 258.5,208.5 C 260.017,208.511 261.184,209.177 262,210.5C 269.641,221.422 271.641,233.422 268,246.5C 260.28,261.785 247.78,269.618 230.5,270C 237.368,254.632 235.034,240.799 223.5,228.5C 234.154,220.008 245.821,213.341 258.5,208.5 Z"/></g>
</svg>
